<svg id="visual" viewBox="0 0 960 540" width="960" height="540" xmlns="http://www.w3.org/2000/svg" xmlns:xlink="http://www.w3.org/1999/xlink" version="1.1"><path d="M0 190L14.5 170.2C29 150.3 58 110.7 87.2 106.2C116.3 101.7 145.7 132.3 174.8 163.8C204 195.3 233 227.7 262 215C291 202.3 320 144.7 349 121.3C378 98 407 109 436.2 122.5C465.3 136 494.7 152 523.8 174.5C553 197 582 226 611 219.8C640 213.7 669 172.3 698 157.8C727 143.3 756 155.7 785.2 152C814.3 148.3 843.7 128.7 872.8 127C902 125.3 931 141.7 945.5 149.8L960 158L960 0L945.5 0C931 0 902 0 872.8 0C843.7 0 814.3 0 785.2 0C756 0 727 0 698 0C669 0 640 0 611 0C582 0 553 0 523.8 0C494.7 0 465.3 0 436.2 0C407 0 378 0 349 0C320 0 291 0 262 0C233 0 204 0 174.8 0C145.7 0 116.3 0 87.2 0C58 0 29 0 14.5 0L0 0Z" fill="#6198ff"></path><path d="M0 276L14.5 253.5C29 231 58 186 87.2 180.7C116.3 175.3 145.7 209.7 174.8 235.8C204 262 233 280 262 268.3C291 256.7 320 215.3 349 191C378 166.7 407 159.3 436.2 167.3C465.3 175.3 494.7 198.7 523.8 221.2C553 243.7 582 265.3 611 262.7C640 260 669 233 698 224C727 215 756 224 785.2 216C814.3 208 843.7 183 872.8 175.8C902 168.7 931 179.3 945.5 184.7L960 190L960 156L945.5 147.8C931 139.7 902 123.3 872.8 125C843.7 126.7 814.3 146.3 785.2 150C756 153.7 727 141.3 698 155.8C669 170.3 640 211.7 611 217.8C582 224 553 195 523.8 172.5C494.7 150 465.3 134 436.2 120.5C407 107 378 96 349 119.3C320 142.7 291 200.3 262 213C233 225.7 204 193.3 174.8 161.8C145.7 130.3 116.3 99.7 87.2 104.2C58 108.7 29 148.3 14.5 168.2L0 188Z" fill="#3c80ff"></path><path d="M0 379L14.5 370.8C29 362.7 58 346.3 87.2 341C116.3 335.7 145.7 341.3 174.8 351.3C204 361.3 233 375.7 262 381C291 386.3 320 382.7 349 370C378 357.3 407 335.7 436.2 336.5C465.3 337.3 494.7 360.7 523.8 370.7C553 380.7 582 377.3 611 385.5C640 393.7 669 413.3 698 411.5C727 409.7 756 386.3 785.2 377.3C814.3 368.3 843.7 373.7 872.8 380.8C902 388 931 397 945.5 401.5L960 406L960 188L945.5 182.7C931 177.3 902 166.7 872.8 173.8C843.7 181 814.3 206 785.2 214C756 222 727 213 698 222C669 231 640 258 611 260.7C582 263.3 553 241.7 523.8 219.2C494.7 196.7 465.3 173.3 436.2 165.3C407 157.3 378 164.7 349 189C320 213.3 291 254.7 262 266.3C233 278 204 260 174.8 233.8C145.7 207.7 116.3 173.3 87.2 178.7C58 184 29 229 14.5 251.5L0 274Z" fill="#0066ff"></path><path d="M0 444L14.5 440.3C29 436.7 58 429.3 87.2 429.3C116.3 429.3 145.7 436.7 174.8 447.5C204 458.3 233 472.7 262 478C291 483.3 320 479.7 349 470.7C378 461.7 407 447.3 436.2 443.8C465.3 440.3 494.7 447.7 523.8 449.5C553 451.3 582 447.7 611 453.8C640 460 669 476 698 470.5C727 465 756 438 785.2 430.8C814.3 423.7 843.7 436.3 872.8 442.7C902 449 931 449 945.5 449L960 449L960 404L945.5 399.5C931 395 902 386 872.8 378.8C843.7 371.7 814.3 366.3 785.2 375.3C756 384.3 727 407.7 698 409.5C669 411.3 640 391.7 611 383.5C582 375.3 553 378.7 523.8 368.7C494.7 358.7 465.3 335.3 436.2 334.5C407 333.7 378 355.3 349 368C320 380.7 291 384.3 262 379C233 373.7 204 359.3 174.8 349.3C145.7 339.3 116.3 333.7 87.2 339C58 344.3 29 360.7 14.5 368.8L0 377Z" fill="#0059dd"></path><path d="M0 541L14.5 541C29 541 58 541 87.2 541C116.3 541 145.7 541 174.8 541C204 541 233 541 262 541C291 541 320 541 349 541C378 541 407 541 436.2 541C465.3 541 494.7 541 523.8 541C553 541 582 541 611 541C640 541 669 541 698 541C727 541 756 541 785.2 541C814.3 541 843.7 541 872.8 541C902 541 931 541 945.5 541L960 541L960 447L945.5 447C931 447 902 447 872.8 440.7C843.7 434.3 814.3 421.7 785.2 428.8C756 436 727 463 698 468.5C669 474 640 458 611 451.8C582 445.7 553 449.3 523.8 447.5C494.7 445.7 465.3 438.3 436.2 441.8C407 445.3 378 459.7 349 468.7C320 477.7 291 481.3 262 476C233 470.7 204 456.3 174.8 445.5C145.7 434.7 116.3 427.3 87.2 427.3C58 427.3 29 434.7 14.5 438.3L0 442Z" fill="#004cbb"></path></svg>